solid 
  facet normal -1.000000E+00 0.000000E+00 0.000000E+00
    outer loop
      vertex -3.310000E+01 -1.998000E+00 3.793000E+00
      vertex -3.310000E+01 -1.998000E+00 8.620700E+01
      vertex -3.310000E+01 -2.000000E-03 8.620700E+01
    endloop
  endfacet
  facet normal -1.000000E+00 0.000000E+00 0.000000E+00
    outer loop
      vertex -3.310000E+01 -1.998000E+00 3.793000E+00
      vertex -3.310000E+01 -2.000000E-03 8.620700E+01
      vertex -3.310000E+01 -2.000000E-03 3.793000E+00
    endloop
  endfacet
  facet normal 0.000000E+00 0.000000E+00 1.000000E+00
    outer loop
      vertex 3.011700E+01 -2.000000E-03 9.000000E+01
      vertex -2.911700E+01 -2.000000E-03 9.000000E+01
      vertex 3.011700E+01 -1.998000E+00 9.000000E+01
    endloop
  endfacet
  facet normal 5.039718E-01 0.000000E+00 8.637201E-01
    outer loop
      vertex 3.192500E+01 -1.998000E+00 8.958700E+01
      vertex 3.245800E+01 -1.998000E+00 8.927600E+01
      vertex 3.245800E+01 -2.000000E-03 8.927600E+01
    endloop
  endfacet
  facet normal 5.039718E-01 0.000000E+00 8.637201E-01
    outer loop
      vertex 3.192500E+01 -1.998000E+00 8.958700E+01
      vertex 3.245800E+01 -2.000000E-03 8.927600E+01
      vertex 3.192500E+01 -2.000000E-03 8.958700E+01
    endloop
  endfacet
  facet normal -2.228683E-01 0.000000E+00 9.748486E-01
    outer loop
      vertex -2.974000E+01 -2.000000E-03 8.995300E+01
      vertex -3.034800E+01 -2.000000E-03 8.981400E+01
      vertex -3.034800E+01 -1.998000E+00 8.981400E+01
    endloop
  endfacet
  facet normal -2.228683E-01 0.000000E+00 9.748486E-01
    outer loop
      vertex -2.974000E+01 -2.000000E-03 8.995300E+01
      vertex -3.034800E+01 -1.998000E+00 8.981400E+01
      vertex -2.974000E+01 -1.998000E+00 8.995300E+01
    endloop
  endfacet
  facet normal 0.000000E+00 0.000000E+00 1.000000E+00
    outer loop
      vertex -2.911700E+01 -2.000000E-03 9.000000E+01
      vertex -2.911700E+01 -1.998000E+00 9.000000E+01
      vertex 3.011700E+01 -1.998000E+00 9.000000E+01
    endloop
  endfacet
  facet normal -3.661014E-01 0.000000E+00 9.305750E-01
    outer loop
      vertex -3.034800E+01 -2.000000E-03 8.981400E+01
      vertex -3.092500E+01 -2.000000E-03 8.958700E+01
      vertex -3.092500E+01 -1.998000E+00 8.958700E+01
    endloop
  endfacet
  facet normal -3.661014E-01 0.000000E+00 9.305750E-01
    outer loop
      vertex -3.034800E+01 -2.000000E-03 8.981400E+01
      vertex -3.092500E+01 -1.998000E+00 8.958700E+01
      vertex -3.034800E+01 -1.998000E+00 8.981400E+01
    endloop
  endfacet
  facet normal -5.039718E-01 0.000000E+00 8.637201E-01
    outer loop
      vertex -3.092500E+01 -2.000000E-03 8.958700E+01
      vertex -3.145800E+01 -2.000000E-03 8.927600E+01
      vertex -3.145800E+01 -1.998000E+00 8.927600E+01
    endloop
  endfacet
  facet normal -5.039718E-01 0.000000E+00 8.637201E-01
    outer loop
      vertex -3.092500E+01 -2.000000E-03 8.958700E+01
      vertex -3.145800E+01 -1.998000E+00 8.927600E+01
      vertex -3.092500E+01 -1.998000E+00 8.958700E+01
    endloop
  endfacet
  facet normal 0.000000E+00 0.000000E+00 -1.000000E+00
    outer loop
      vertex 3.011700E+01 -1.998000E+00 0.000000E+00
      vertex -2.911700E+01 -1.998000E+00 0.000000E+00
      vertex 3.011700E+01 -2.000000E-03 0.000000E+00
    endloop
  endfacet
  facet normal -6.316366E-01 0.000000E+00 7.752646E-01
    outer loop
      vertex -3.145800E+01 -2.000000E-03 8.927600E+01
      vertex -3.193300E+01 -2.000000E-03 8.888900E+01
      vertex -3.193300E+01 -1.998000E+00 8.888900E+01
    endloop
  endfacet
  facet normal -6.316366E-01 0.000000E+00 7.752646E-01
    outer loop
      vertex -3.145800E+01 -2.000000E-03 8.927600E+01
      vertex -3.193300E+01 -1.998000E+00 8.888900E+01
      vertex -3.145800E+01 -1.998000E+00 8.927600E+01
    endloop
  endfacet
  facet normal -8.403697E-01 0.000000E+00 -5.420136E-01
    outer loop
      vertex -3.266600E+01 -2.000000E-03 2.071000E+00
      vertex -3.233900E+01 -2.000000E-03 1.564000E+00
      vertex -3.233900E+01 -1.998000E+00 1.564000E+00
    endloop
  endfacet
  facet normal -8.403697E-01 0.000000E+00 -5.420136E-01
    outer loop
      vertex -3.266600E+01 -2.000000E-03 2.071000E+00
      vertex -3.233900E+01 -1.998000E+00 1.564000E+00
      vertex -3.266600E+01 -1.998000E+00 2.071000E+00
    endloop
  endfacet
  facet normal 6.316366E-01 0.000000E+00 7.752646E-01
    outer loop
      vertex 3.245800E+01 -1.998000E+00 8.927600E+01
      vertex 3.293300E+01 -1.998000E+00 8.888900E+01
      vertex 3.245800E+01 -2.000000E-03 8.927600E+01
    endloop
  endfacet
  facet normal 6.316366E-01 0.000000E+00 7.752646E-01
    outer loop
      vertex 3.293300E+01 -2.000000E-03 8.888900E+01
      vertex 3.245800E+01 -2.000000E-03 8.927600E+01
      vertex 3.293300E+01 -1.998000E+00 8.888900E+01
    endloop
  endfacet
  facet normal -7.446821E-01 0.000000E+00 6.674193E-01
    outer loop
      vertex -3.193300E+01 -2.000000E-03 8.888900E+01
      vertex -3.233900E+01 -2.000000E-03 8.843600E+01
      vertex -3.233900E+01 -1.998000E+00 8.843600E+01
    endloop
  endfacet
  facet normal -7.446821E-01 0.000000E+00 6.674193E-01
    outer loop
      vertex -3.193300E+01 -2.000000E-03 8.888900E+01
      vertex -3.233900E+01 -1.998000E+00 8.843600E+01
      vertex -3.193300E+01 -1.998000E+00 8.888900E+01
    endloop
  endfacet
  facet normal 7.446821E-01 0.000000E+00 6.674193E-01
    outer loop
      vertex 3.293300E+01 -1.998000E+00 8.888900E+01
      vertex 3.333900E+01 -1.998000E+00 8.843600E+01
      vertex 3.333900E+01 -2.000000E-03 8.843600E+01
    endloop
  endfacet
  facet normal 7.446821E-01 0.000000E+00 6.674193E-01
    outer loop
      vertex 3.293300E+01 -1.998000E+00 8.888900E+01
      vertex 3.333900E+01 -2.000000E-03 8.843600E+01
      vertex 3.293300E+01 -2.000000E-03 8.888900E+01
    endloop
  endfacet
  facet normal 0.000000E+00 0.000000E+00 -1.000000E+00
    outer loop
      vertex -2.911700E+01 -1.998000E+00 0.000000E+00
      vertex -2.911700E+01 -2.000000E-03 0.000000E+00
      vertex 3.011700E+01 -2.000000E-03 0.000000E+00
    endloop
  endfacet
  facet normal -7.446821E-01 0.000000E+00 -6.674193E-01
    outer loop
      vertex -3.233900E+01 -2.000000E-03 1.564000E+00
      vertex -3.193300E+01 -2.000000E-03 1.111000E+00
      vertex -3.193300E+01 -1.998000E+00 1.111000E+00
    endloop
  endfacet
  facet normal -7.446821E-01 0.000000E+00 -6.674193E-01
    outer loop
      vertex -3.233900E+01 -2.000000E-03 1.564000E+00
      vertex -3.193300E+01 -1.998000E+00 1.111000E+00
      vertex -3.233900E+01 -1.998000E+00 1.564000E+00
    endloop
  endfacet
  facet normal 8.403697E-01 0.000000E+00 5.420136E-01
    outer loop
      vertex 3.333900E+01 -1.998000E+00 8.843600E+01
      vertex 3.366600E+01 -1.998000E+00 8.792900E+01
      vertex 3.366600E+01 -2.000000E-03 8.792900E+01
    endloop
  endfacet
  facet normal 8.403697E-01 0.000000E+00 5.420136E-01
    outer loop
      vertex 3.333900E+01 -1.998000E+00 8.843600E+01
      vertex 3.366600E+01 -2.000000E-03 8.792900E+01
      vertex 3.333900E+01 -2.000000E-03 8.843600E+01
    endloop
  endfacet
  facet normal 9.171495E-01 0.000000E+00 3.985432E-01
    outer loop
      vertex 3.366600E+01 -1.998000E+00 8.792900E+01
      vertex 3.390500E+01 -1.998000E+00 8.737900E+01
      vertex 3.390500E+01 -2.000000E-03 8.737900E+01
    endloop
  endfacet
  facet normal 9.171495E-01 0.000000E+00 3.985432E-01
    outer loop
      vertex 3.366600E+01 -1.998000E+00 8.792900E+01
      vertex 3.390500E+01 -2.000000E-03 8.737900E+01
      vertex 3.366600E+01 -2.000000E-03 8.792900E+01
    endloop
  endfacet
  facet normal -8.403697E-01 0.000000E+00 5.420136E-01
    outer loop
      vertex -3.233900E+01 -2.000000E-03 8.843600E+01
      vertex -3.266600E+01 -2.000000E-03 8.792900E+01
      vertex -3.266600E+01 -1.998000E+00 8.792900E+01
    endloop
  endfacet
  facet normal -8.403697E-01 0.000000E+00 5.420136E-01
    outer loop
      vertex -3.233900E+01 -2.000000E-03 8.843600E+01
      vertex -3.266600E+01 -1.998000E+00 8.792900E+01
      vertex -3.233900E+01 -1.998000E+00 8.843600E+01
    endloop
  endfacet
  facet normal 9.696479E-01 0.000000E+00 2.445054E-01
    outer loop
      vertex 3.390500E+01 -1.998000E+00 8.737900E+01
      vertex 3.405100E+01 -1.998000E+00 8.680000E+01
      vertex 3.405100E+01 -2.000000E-03 8.680000E+01
    endloop
  endfacet
  facet normal 9.696479E-01 0.000000E+00 2.445054E-01
    outer loop
      vertex 3.390500E+01 -1.998000E+00 8.737900E+01
      vertex 3.405100E+01 -2.000000E-03 8.680000E+01
      vertex 3.390500E+01 -2.000000E-03 8.737900E+01
    endloop
  endfacet
  facet normal -6.316366E-01 0.000000E+00 -7.752646E-01
    outer loop
      vertex -3.193300E+01 -2.000000E-03 1.111000E+00
      vertex -3.145800E+01 -2.000000E-03 7.240000E-01
      vertex -3.145800E+01 -1.998000E+00 7.240000E-01
    endloop
  endfacet
  facet normal -6.316366E-01 0.000000E+00 -7.752646E-01
    outer loop
      vertex -3.193300E+01 -2.000000E-03 1.111000E+00
      vertex -3.145800E+01 -1.998000E+00 7.240000E-01
      vertex -3.193300E+01 -1.998000E+00 1.111000E+00
    endloop
  endfacet
  facet normal 9.966035E-01 0.000000E+00 8.235003E-02
    outer loop
      vertex 3.405100E+01 -1.998000E+00 8.680000E+01
      vertex 3.410000E+01 -1.998000E+00 8.620700E+01
      vertex 3.410000E+01 -2.000000E-03 8.620700E+01
    endloop
  endfacet
  facet normal 9.966035E-01 0.000000E+00 8.235003E-02
    outer loop
      vertex 3.405100E+01 -1.998000E+00 8.680000E+01
      vertex 3.410000E+01 -2.000000E-03 8.620700E+01
      vertex 3.405100E+01 -2.000000E-03 8.680000E+01
    endloop
  endfacet
  facet normal -5.039718E-01 0.000000E+00 -8.637201E-01
    outer loop
      vertex -3.145800E+01 -2.000000E-03 7.240000E-01
      vertex -3.092500E+01 -2.000000E-03 4.130000E-01
      vertex -3.092500E+01 -1.998000E+00 4.130000E-01
    endloop
  endfacet
  facet normal -5.039718E-01 0.000000E+00 -8.637201E-01
    outer loop
      vertex -3.145800E+01 -2.000000E-03 7.240000E-01
      vertex -3.092500E+01 -1.998000E+00 4.130000E-01
      vertex -3.145800E+01 -1.998000E+00 7.240000E-01
    endloop
  endfacet
  facet normal 6.316366E-01 0.000000E+00 -7.752646E-01
    outer loop
      vertex 3.245800E+01 -1.998000E+00 7.240000E-01
      vertex 3.245800E+01 -2.000000E-03 7.240000E-01
      vertex 3.293300E+01 -2.000000E-03 1.111000E+00
    endloop
  endfacet
  facet normal -3.661014E-01 0.000000E+00 -9.305750E-01
    outer loop
      vertex -3.092500E+01 -2.000000E-03 4.130000E-01
      vertex -3.034800E+01 -2.000000E-03 1.860000E-01
      vertex -3.034800E+01 -1.998000E+00 1.860000E-01
    endloop
  endfacet
  facet normal -3.661014E-01 0.000000E+00 -9.305750E-01
    outer loop
      vertex -3.092500E+01 -2.000000E-03 4.130000E-01
      vertex -3.034800E+01 -1.998000E+00 1.860000E-01
      vertex -3.092500E+01 -1.998000E+00 4.130000E-01
    endloop
  endfacet
  facet normal 5.039718E-01 0.000000E+00 -8.637201E-01
    outer loop
      vertex 3.245800E+01 -1.998000E+00 7.240000E-01
      vertex 3.192500E+01 -1.998000E+00 4.130000E-01
      vertex 3.192500E+01 -2.000000E-03 4.130000E-01
    endloop
  endfacet
  facet normal 5.039718E-01 0.000000E+00 -8.637201E-01
    outer loop
      vertex 3.245800E+01 -1.998000E+00 7.240000E-01
      vertex 3.192500E+01 -2.000000E-03 4.130000E-01
      vertex 3.245800E+01 -2.000000E-03 7.240000E-01
    endloop
  endfacet
  facet normal 0.000000E+00 1.000000E+00 0.000000E+00
    outer loop
      vertex 3.410000E+01 -2.000000E-03 8.620700E+01
      vertex -3.310000E+01 -2.000000E-03 3.793000E+00
      vertex 3.405100E+01 -2.000000E-03 8.680000E+01
    endloop
  endfacet
  facet normal 0.000000E+00 1.000000E+00 0.000000E+00
    outer loop
      vertex 3.390500E+01 -2.000000E-03 8.737900E+01
      vertex 3.405100E+01 -2.000000E-03 8.680000E+01
      vertex -3.310000E+01 -2.000000E-03 3.793000E+00
    endloop
  endfacet
  facet normal 0.000000E+00 1.000000E+00 0.000000E+00
    outer loop
      vertex 3.366600E+01 -2.000000E-03 8.792900E+01
      vertex 3.390500E+01 -2.000000E-03 8.737900E+01
      vertex -3.310000E+01 -2.000000E-03 3.793000E+00
    endloop
  endfacet
  facet normal 3.661014E-01 0.000000E+00 -9.305750E-01
    outer loop
      vertex 3.192500E+01 -1.998000E+00 4.130000E-01
      vertex 3.134800E+01 -1.998000E+00 1.860000E-01
      vertex 3.134800E+01 -2.000000E-03 1.860000E-01
    endloop
  endfacet
  facet normal 3.661014E-01 0.000000E+00 -9.305750E-01
    outer loop
      vertex 3.192500E+01 -1.998000E+00 4.130000E-01
      vertex 3.134800E+01 -2.000000E-03 1.860000E-01
      vertex 3.192500E+01 -2.000000E-03 4.130000E-01
    endloop
  endfacet
  facet normal -2.228683E-01 0.000000E+00 -9.748486E-01
    outer loop
      vertex -3.034800E+01 -2.000000E-03 1.860000E-01
      vertex -2.974000E+01 -2.000000E-03 4.700000E-02
      vertex -2.974000E+01 -1.998000E+00 4.700000E-02
    endloop
  endfacet
  facet normal -2.228683E-01 0.000000E+00 -9.748486E-01
    outer loop
      vertex -3.034800E+01 -2.000000E-03 1.860000E-01
      vertex -2.974000E+01 -1.998000E+00 4.700000E-02
      vertex -3.034800E+01 -1.998000E+00 1.860000E-01
    endloop
  endfacet
  facet normal 2.228683E-01 0.000000E+00 -9.748486E-01
    outer loop
      vertex 3.134800E+01 -1.998000E+00 1.860000E-01
      vertex 3.074000E+01 -1.998000E+00 4.700000E-02
      vertex 3.074000E+01 -2.000000E-03 4.700000E-02
    endloop
  endfacet
  facet normal 2.228683E-01 0.000000E+00 -9.748486E-01
    outer loop
      vertex 3.134800E+01 -1.998000E+00 1.860000E-01
      vertex 3.074000E+01 -2.000000E-03 4.700000E-02
      vertex 3.134800E+01 -2.000000E-03 1.860000E-01
    endloop
  endfacet
  facet normal -7.522764E-02 0.000000E+00 -9.971664E-01
    outer loop
      vertex -2.974000E+01 -2.000000E-03 4.700000E-02
      vertex -2.911700E+01 -2.000000E-03 0.000000E+00
      vertex -2.911700E+01 -1.998000E+00 0.000000E+00
    endloop
  endfacet
  facet normal -7.522764E-02 0.000000E+00 -9.971664E-01
    outer loop
      vertex -2.974000E+01 -2.000000E-03 4.700000E-02
      vertex -2.911700E+01 -1.998000E+00 0.000000E+00
      vertex -2.974000E+01 -1.998000E+00 4.700000E-02
    endloop
  endfacet
  facet normal 1.000000E+00 0.000000E+00 0.000000E+00
    outer loop
      vertex 3.410000E+01 -1.998000E+00 8.620700E+01
      vertex 3.410000E+01 -1.998000E+00 3.793000E+00
      vertex 3.410000E+01 -2.000000E-03 8.620700E+01
    endloop
  endfacet
  facet normal 1.000000E+00 0.000000E+00 0.000000E+00
    outer loop
      vertex 3.410000E+01 -2.000000E-03 3.793000E+00
      vertex 3.410000E+01 -2.000000E-03 8.620700E+01
      vertex 3.410000E+01 -1.998000E+00 3.793000E+00
    endloop
  endfacet
  facet normal 0.000000E+00 1.000000E+00 0.000000E+00
    outer loop
      vertex -3.145800E+01 -2.000000E-03 8.927600E+01
      vertex -3.092500E+01 -2.000000E-03 8.958700E+01
      vertex -3.310000E+01 -2.000000E-03 8.620700E+01
    endloop
  endfacet
  facet normal 0.000000E+00 1.000000E+00 0.000000E+00
    outer loop
      vertex -3.092500E+01 -2.000000E-03 8.958700E+01
      vertex -3.034800E+01 -2.000000E-03 8.981400E+01
      vertex -3.310000E+01 -2.000000E-03 8.620700E+01
    endloop
  endfacet
  facet normal 0.000000E+00 1.000000E+00 0.000000E+00
    outer loop
      vertex -3.034800E+01 -2.000000E-03 8.981400E+01
      vertex -2.974000E+01 -2.000000E-03 8.995300E+01
      vertex -3.310000E+01 -2.000000E-03 8.620700E+01
    endloop
  endfacet
  facet normal 0.000000E+00 1.000000E+00 0.000000E+00
    outer loop
      vertex -2.974000E+01 -2.000000E-03 8.995300E+01
      vertex -2.911700E+01 -2.000000E-03 9.000000E+01
      vertex -3.310000E+01 -2.000000E-03 8.620700E+01
    endloop
  endfacet
  facet normal 0.000000E+00 1.000000E+00 0.000000E+00
    outer loop
      vertex -3.310000E+01 -2.000000E-03 3.793000E+00
      vertex -3.310000E+01 -2.000000E-03 8.620700E+01
      vertex -2.911700E+01 -2.000000E-03 9.000000E+01
    endloop
  endfacet
  facet normal 0.000000E+00 1.000000E+00 0.000000E+00
    outer loop
      vertex -3.193300E+01 -2.000000E-03 8.888900E+01
      vertex -3.145800E+01 -2.000000E-03 8.927600E+01
      vertex -3.310000E+01 -2.000000E-03 8.620700E+01
    endloop
  endfacet
  facet normal 0.000000E+00 -1.000000E+00 0.000000E+00
    outer loop
      vertex 3.390500E+01 -1.998000E+00 8.737900E+01
      vertex 3.410000E+01 -1.998000E+00 8.620700E+01
      vertex 3.405100E+01 -1.998000E+00 8.680000E+01
    endloop
  endfacet
  facet normal 0.000000E+00 -1.000000E+00 0.000000E+00
    outer loop
      vertex 3.366600E+01 -1.998000E+00 8.792900E+01
      vertex 3.410000E+01 -1.998000E+00 8.620700E+01
      vertex 3.390500E+01 -1.998000E+00 8.737900E+01
    endloop
  endfacet
  facet normal 0.000000E+00 -1.000000E+00 0.000000E+00
    outer loop
      vertex 3.333900E+01 -1.998000E+00 8.843600E+01
      vertex 3.410000E+01 -1.998000E+00 8.620700E+01
      vertex 3.366600E+01 -1.998000E+00 8.792900E+01
    endloop
  endfacet
  facet normal 0.000000E+00 -1.000000E+00 0.000000E+00
    outer loop
      vertex 3.293300E+01 -1.998000E+00 8.888900E+01
      vertex 3.410000E+01 -1.998000E+00 8.620700E+01
      vertex 3.333900E+01 -1.998000E+00 8.843600E+01
    endloop
  endfacet
  facet normal 7.522764E-02 0.000000E+00 -9.971664E-01
    outer loop
      vertex 3.074000E+01 -1.998000E+00 4.700000E-02
      vertex 3.011700E+01 -1.998000E+00 0.000000E+00
      vertex 3.011700E+01 -2.000000E-03 0.000000E+00
    endloop
  endfacet
  facet normal 7.522764E-02 0.000000E+00 -9.971664E-01
    outer loop
      vertex 3.074000E+01 -1.998000E+00 4.700000E-02
      vertex 3.011700E+01 -2.000000E-03 0.000000E+00
      vertex 3.074000E+01 -2.000000E-03 4.700000E-02
    endloop
  endfacet
  facet normal 0.000000E+00 1.000000E+00 0.000000E+00
    outer loop
      vertex 3.245800E+01 -2.000000E-03 8.927600E+01
      vertex 3.293300E+01 -2.000000E-03 8.888900E+01
      vertex -3.310000E+01 -2.000000E-03 3.793000E+00
    endloop
  endfacet
  facet normal 0.000000E+00 1.000000E+00 0.000000E+00
    outer loop
      vertex 3.192500E+01 -2.000000E-03 8.958700E+01
      vertex 3.245800E+01 -2.000000E-03 8.927600E+01
      vertex -3.310000E+01 -2.000000E-03 3.793000E+00
    endloop
  endfacet
  facet normal 0.000000E+00 1.000000E+00 0.000000E+00
    outer loop
      vertex 3.134800E+01 -2.000000E-03 8.981400E+01
      vertex 3.192500E+01 -2.000000E-03 8.958700E+01
      vertex -3.310000E+01 -2.000000E-03 3.793000E+00
    endloop
  endfacet
  facet normal 0.000000E+00 1.000000E+00 0.000000E+00
    outer loop
      vertex 3.333900E+01 -2.000000E-03 8.843600E+01
      vertex -3.310000E+01 -2.000000E-03 3.793000E+00
      vertex 3.293300E+01 -2.000000E-03 8.888900E+01
    endloop
  endfacet
  facet normal 0.000000E+00 1.000000E+00 0.000000E+00
    outer loop
      vertex 3.074000E+01 -2.000000E-03 8.995300E+01
      vertex 3.134800E+01 -2.000000E-03 8.981400E+01
      vertex -3.310000E+01 -2.000000E-03 3.793000E+00
    endloop
  endfacet
  facet normal 0.000000E+00 1.000000E+00 0.000000E+00
    outer loop
      vertex 3.245800E+01 -2.000000E-03 7.240000E-01
      vertex 3.192500E+01 -2.000000E-03 4.130000E-01
      vertex 3.410000E+01 -2.000000E-03 3.793000E+00
    endloop
  endfacet
  facet normal 0.000000E+00 1.000000E+00 0.000000E+00
    outer loop
      vertex 3.192500E+01 -2.000000E-03 4.130000E-01
      vertex 3.134800E+01 -2.000000E-03 1.860000E-01
      vertex 3.410000E+01 -2.000000E-03 3.793000E+00
    endloop
  endfacet
  facet normal 0.000000E+00 1.000000E+00 0.000000E+00
    outer loop
      vertex 3.074000E+01 -2.000000E-03 4.700000E-02
      vertex 3.410000E+01 -2.000000E-03 3.793000E+00
      vertex 3.134800E+01 -2.000000E-03 1.860000E-01
    endloop
  endfacet
  facet normal 0.000000E+00 1.000000E+00 0.000000E+00
    outer loop
      vertex 3.011700E+01 -2.000000E-03 0.000000E+00
      vertex 3.410000E+01 -2.000000E-03 3.793000E+00
      vertex 3.074000E+01 -2.000000E-03 4.700000E-02
    endloop
  endfacet
  facet normal 0.000000E+00 -1.000000E+00 0.000000E+00
    outer loop
      vertex -3.310000E+01 -1.998000E+00 8.620700E+01
      vertex 3.410000E+01 -1.998000E+00 3.793000E+00
      vertex -3.305100E+01 -1.998000E+00 8.680000E+01
    endloop
  endfacet
  facet normal 0.000000E+00 -1.000000E+00 0.000000E+00
    outer loop
      vertex -3.290500E+01 -1.998000E+00 8.737900E+01
      vertex -3.305100E+01 -1.998000E+00 8.680000E+01
      vertex 3.410000E+01 -1.998000E+00 3.793000E+00
    endloop
  endfacet
  facet normal 0.000000E+00 -1.000000E+00 0.000000E+00
    outer loop
      vertex -3.266600E+01 -1.998000E+00 8.792900E+01
      vertex -3.290500E+01 -1.998000E+00 8.737900E+01
      vertex 3.410000E+01 -1.998000E+00 3.793000E+00
    endloop
  endfacet
  facet normal 0.000000E+00 -1.000000E+00 0.000000E+00
    outer loop
      vertex -3.233900E+01 -1.998000E+00 8.843600E+01
      vertex -3.266600E+01 -1.998000E+00 8.792900E+01
      vertex 3.410000E+01 -1.998000E+00 3.793000E+00
    endloop
  endfacet
  facet normal 0.000000E+00 -1.000000E+00 0.000000E+00
    outer loop
      vertex -3.193300E+01 -1.998000E+00 8.888900E+01
      vertex -3.233900E+01 -1.998000E+00 8.843600E+01
      vertex 3.410000E+01 -1.998000E+00 3.793000E+00
    endloop
  endfacet
  facet normal 0.000000E+00 -1.000000E+00 0.000000E+00
    outer loop
      vertex -3.145800E+01 -1.998000E+00 8.927600E+01
      vertex -3.193300E+01 -1.998000E+00 8.888900E+01
      vertex 3.410000E+01 -1.998000E+00 3.793000E+00
    endloop
  endfacet
  facet normal 0.000000E+00 -1.000000E+00 0.000000E+00
    outer loop
      vertex -3.092500E+01 -1.998000E+00 8.958700E+01
      vertex -3.145800E+01 -1.998000E+00 8.927600E+01
      vertex 3.410000E+01 -1.998000E+00 3.793000E+00
    endloop
  endfacet
  facet normal 0.000000E+00 1.000000E+00 0.000000E+00
    outer loop
      vertex -3.305100E+01 -2.000000E-03 3.200000E+00
      vertex -3.310000E+01 -2.000000E-03 3.793000E+00
      vertex -3.290500E+01 -2.000000E-03 2.621000E+00
    endloop
  endfacet
  facet normal 0.000000E+00 1.000000E+00 0.000000E+00
    outer loop
      vertex -3.266600E+01 -2.000000E-03 2.071000E+00
      vertex -3.290500E+01 -2.000000E-03 2.621000E+00
      vertex -3.310000E+01 -2.000000E-03 3.793000E+00
    endloop
  endfacet
  facet normal 0.000000E+00 1.000000E+00 0.000000E+00
    outer loop
      vertex -3.233900E+01 -2.000000E-03 1.564000E+00
      vertex -3.266600E+01 -2.000000E-03 2.071000E+00
      vertex -3.310000E+01 -2.000000E-03 3.793000E+00
    endloop
  endfacet
  facet normal 0.000000E+00 1.000000E+00 0.000000E+00
    outer loop
      vertex -3.193300E+01 -2.000000E-03 1.111000E+00
      vertex -3.233900E+01 -2.000000E-03 1.564000E+00
      vertex -3.310000E+01 -2.000000E-03 3.793000E+00
    endloop
  endfacet
  facet normal 0.000000E+00 1.000000E+00 0.000000E+00
    outer loop
      vertex -3.145800E+01 -2.000000E-03 7.240000E-01
      vertex -3.193300E+01 -2.000000E-03 1.111000E+00
      vertex -3.310000E+01 -2.000000E-03 3.793000E+00
    endloop
  endfacet
  facet normal 0.000000E+00 -1.000000E+00 0.000000E+00
    outer loop
      vertex 3.192500E+01 -1.998000E+00 8.958700E+01
      vertex 3.410000E+01 -1.998000E+00 8.620700E+01
      vertex 3.245800E+01 -1.998000E+00 8.927600E+01
    endloop
  endfacet
  facet normal 0.000000E+00 -1.000000E+00 0.000000E+00
    outer loop
      vertex 3.134800E+01 -1.998000E+00 8.981400E+01
      vertex 3.410000E+01 -1.998000E+00 8.620700E+01
      vertex 3.192500E+01 -1.998000E+00 8.958700E+01
    endloop
  endfacet
  facet normal 0.000000E+00 -1.000000E+00 0.000000E+00
    outer loop
      vertex 3.074000E+01 -1.998000E+00 8.995300E+01
      vertex 3.410000E+01 -1.998000E+00 8.620700E+01
      vertex 3.134800E+01 -1.998000E+00 8.981400E+01
    endloop
  endfacet
  facet normal 0.000000E+00 -1.000000E+00 0.000000E+00
    outer loop
      vertex 3.011700E+01 -1.998000E+00 9.000000E+01
      vertex 3.410000E+01 -1.998000E+00 8.620700E+01
      vertex 3.074000E+01 -1.998000E+00 8.995300E+01
    endloop
  endfacet
  facet normal 0.000000E+00 -1.000000E+00 0.000000E+00
    outer loop
      vertex 3.293300E+01 -1.998000E+00 8.888900E+01
      vertex 3.245800E+01 -1.998000E+00 8.927600E+01
      vertex 3.410000E+01 -1.998000E+00 8.620700E+01
    endloop
  endfacet
  facet normal 9.966035E-01 0.000000E+00 -8.235003E-02
    outer loop
      vertex 3.410000E+01 -1.998000E+00 3.793000E+00
      vertex 3.405100E+01 -1.998000E+00 3.200000E+00
      vertex 3.405100E+01 -2.000000E-03 3.200000E+00
    endloop
  endfacet
  facet normal 9.966035E-01 0.000000E+00 -8.235003E-02
    outer loop
      vertex 3.410000E+01 -1.998000E+00 3.793000E+00
      vertex 3.405100E+01 -2.000000E-03 3.200000E+00
      vertex 3.410000E+01 -2.000000E-03 3.793000E+00
    endloop
  endfacet
  facet normal 7.522764E-02 0.000000E+00 9.971664E-01
    outer loop
      vertex 3.011700E+01 -1.998000E+00 9.000000E+01
      vertex 3.074000E+01 -1.998000E+00 8.995300E+01
      vertex 3.074000E+01 -2.000000E-03 8.995300E+01
    endloop
  endfacet
  facet normal 7.522764E-02 0.000000E+00 9.971664E-01
    outer loop
      vertex 3.011700E+01 -1.998000E+00 9.000000E+01
      vertex 3.074000E+01 -2.000000E-03 8.995300E+01
      vertex 3.011700E+01 -2.000000E-03 9.000000E+01
    endloop
  endfacet
  facet normal 9.696479E-01 0.000000E+00 -2.445054E-01
    outer loop
      vertex 3.405100E+01 -1.998000E+00 3.200000E+00
      vertex 3.390500E+01 -1.998000E+00 2.621000E+00
      vertex 3.390500E+01 -2.000000E-03 2.621000E+00
    endloop
  endfacet
  facet normal 9.696479E-01 0.000000E+00 -2.445054E-01
    outer loop
      vertex 3.405100E+01 -1.998000E+00 3.200000E+00
      vertex 3.390500E+01 -2.000000E-03 2.621000E+00
      vertex 3.405100E+01 -2.000000E-03 3.200000E+00
    endloop
  endfacet
  facet normal 9.171495E-01 0.000000E+00 -3.985432E-01
    outer loop
      vertex 3.390500E+01 -1.998000E+00 2.621000E+00
      vertex 3.366600E+01 -1.998000E+00 2.071000E+00
      vertex 3.366600E+01 -2.000000E-03 2.071000E+00
    endloop
  endfacet
  facet normal 9.171495E-01 0.000000E+00 -3.985432E-01
    outer loop
      vertex 3.390500E+01 -1.998000E+00 2.621000E+00
      vertex 3.366600E+01 -2.000000E-03 2.071000E+00
      vertex 3.390500E+01 -2.000000E-03 2.621000E+00
    endloop
  endfacet
  facet normal 2.228683E-01 0.000000E+00 9.748486E-01
    outer loop
      vertex 3.074000E+01 -1.998000E+00 8.995300E+01
      vertex 3.134800E+01 -1.998000E+00 8.981400E+01
      vertex 3.134800E+01 -2.000000E-03 8.981400E+01
    endloop
  endfacet
  facet normal 2.228683E-01 0.000000E+00 9.748486E-01
    outer loop
      vertex 3.074000E+01 -1.998000E+00 8.995300E+01
      vertex 3.134800E+01 -2.000000E-03 8.981400E+01
      vertex 3.074000E+01 -2.000000E-03 8.995300E+01
    endloop
  endfacet
  facet normal 0.000000E+00 -1.000000E+00 0.000000E+00
    outer loop
      vertex 3.293300E+01 -1.998000E+00 1.111000E+00
      vertex 3.333900E+01 -1.998000E+00 1.564000E+00
      vertex -3.310000E+01 -1.998000E+00 8.620700E+01
    endloop
  endfacet
  facet normal 0.000000E+00 -1.000000E+00 0.000000E+00
    outer loop
      vertex 3.245800E+01 -1.998000E+00 7.240000E-01
      vertex 3.293300E+01 -1.998000E+00 1.111000E+00
      vertex -3.310000E+01 -1.998000E+00 8.620700E+01
    endloop
  endfacet
  facet normal 0.000000E+00 -1.000000E+00 0.000000E+00
    outer loop
      vertex 3.192500E+01 -1.998000E+00 4.130000E-01
      vertex 3.245800E+01 -1.998000E+00 7.240000E-01
      vertex -3.310000E+01 -1.998000E+00 8.620700E+01
    endloop
  endfacet
  facet normal 0.000000E+00 -1.000000E+00 0.000000E+00
    outer loop
      vertex 3.134800E+01 -1.998000E+00 1.860000E-01
      vertex 3.192500E+01 -1.998000E+00 4.130000E-01
      vertex -3.310000E+01 -1.998000E+00 8.620700E+01
    endloop
  endfacet
  facet normal 8.403697E-01 0.000000E+00 -5.420136E-01
    outer loop
      vertex 3.366600E+01 -1.998000E+00 2.071000E+00
      vertex 3.333900E+01 -1.998000E+00 1.564000E+00
      vertex 3.333900E+01 -2.000000E-03 1.564000E+00
    endloop
  endfacet
  facet normal 8.403697E-01 0.000000E+00 -5.420136E-01
    outer loop
      vertex 3.366600E+01 -1.998000E+00 2.071000E+00
      vertex 3.333900E+01 -2.000000E-03 1.564000E+00
      vertex 3.366600E+01 -2.000000E-03 2.071000E+00
    endloop
  endfacet
  facet normal 7.446821E-01 0.000000E+00 -6.674193E-01
    outer loop
      vertex 3.333900E+01 -1.998000E+00 1.564000E+00
      vertex 3.293300E+01 -1.998000E+00 1.111000E+00
      vertex 3.293300E+01 -2.000000E-03 1.111000E+00
    endloop
  endfacet
  facet normal 7.446821E-01 0.000000E+00 -6.674193E-01
    outer loop
      vertex 3.333900E+01 -1.998000E+00 1.564000E+00
      vertex 3.293300E+01 -2.000000E-03 1.111000E+00
      vertex 3.333900E+01 -2.000000E-03 1.564000E+00
    endloop
  endfacet
  facet normal 3.661014E-01 0.000000E+00 9.305750E-01
    outer loop
      vertex 3.134800E+01 -1.998000E+00 8.981400E+01
      vertex 3.192500E+01 -1.998000E+00 8.958700E+01
      vertex 3.192500E+01 -2.000000E-03 8.958700E+01
    endloop
  endfacet
  facet normal 3.661014E-01 0.000000E+00 9.305750E-01
    outer loop
      vertex 3.134800E+01 -1.998000E+00 8.981400E+01
      vertex 3.192500E+01 -2.000000E-03 8.958700E+01
      vertex 3.134800E+01 -2.000000E-03 8.981400E+01
    endloop
  endfacet
  facet normal 6.316366E-01 0.000000E+00 -7.752646E-01
    outer loop
      vertex 3.293300E+01 -1.998000E+00 1.111000E+00
      vertex 3.245800E+01 -1.998000E+00 7.240000E-01
      vertex 3.293300E+01 -2.000000E-03 1.111000E+00
    endloop
  endfacet
  facet normal 0.000000E+00 -1.000000E+00 0.000000E+00
    outer loop
      vertex -3.145800E+01 -1.998000E+00 7.240000E-01
      vertex -3.310000E+01 -1.998000E+00 3.793000E+00
      vertex -3.193300E+01 -1.998000E+00 1.111000E+00
    endloop
  endfacet
  facet normal 0.000000E+00 -1.000000E+00 0.000000E+00
    outer loop
      vertex -3.092500E+01 -1.998000E+00 4.130000E-01
      vertex -3.310000E+01 -1.998000E+00 3.793000E+00
      vertex -3.145800E+01 -1.998000E+00 7.240000E-01
    endloop
  endfacet
  facet normal 0.000000E+00 -1.000000E+00 0.000000E+00
    outer loop
      vertex -3.034800E+01 -1.998000E+00 1.860000E-01
      vertex -3.310000E+01 -1.998000E+00 3.793000E+00
      vertex -3.092500E+01 -1.998000E+00 4.130000E-01
    endloop
  endfacet
  facet normal 0.000000E+00 -1.000000E+00 0.000000E+00
    outer loop
      vertex -2.974000E+01 -1.998000E+00 4.700000E-02
      vertex -3.310000E+01 -1.998000E+00 3.793000E+00
      vertex -3.034800E+01 -1.998000E+00 1.860000E-01
    endloop
  endfacet
  facet normal 0.000000E+00 -1.000000E+00 0.000000E+00
    outer loop
      vertex -2.911700E+01 -1.998000E+00 0.000000E+00
      vertex -3.310000E+01 -1.998000E+00 3.793000E+00
      vertex -2.974000E+01 -1.998000E+00 4.700000E-02
    endloop
  endfacet
  facet normal 0.000000E+00 1.000000E+00 0.000000E+00
    outer loop
      vertex 3.410000E+01 -2.000000E-03 3.793000E+00
      vertex 3.011700E+01 -2.000000E-03 0.000000E+00
      vertex -3.310000E+01 -2.000000E-03 3.793000E+00
    endloop
  endfacet
  facet normal 0.000000E+00 1.000000E+00 0.000000E+00
    outer loop
      vertex 3.405100E+01 -2.000000E-03 3.200000E+00
      vertex 3.390500E+01 -2.000000E-03 2.621000E+00
      vertex 3.410000E+01 -2.000000E-03 3.793000E+00
    endloop
  endfacet
  facet normal 0.000000E+00 1.000000E+00 0.000000E+00
    outer loop
      vertex 3.366600E+01 -2.000000E-03 2.071000E+00
      vertex 3.410000E+01 -2.000000E-03 3.793000E+00
      vertex 3.390500E+01 -2.000000E-03 2.621000E+00
    endloop
  endfacet
  facet normal 0.000000E+00 1.000000E+00 0.000000E+00
    outer loop
      vertex 3.333900E+01 -2.000000E-03 1.564000E+00
      vertex 3.410000E+01 -2.000000E-03 3.793000E+00
      vertex 3.366600E+01 -2.000000E-03 2.071000E+00
    endloop
  endfacet
  facet normal 0.000000E+00 1.000000E+00 0.000000E+00
    outer loop
      vertex 3.245800E+01 -2.000000E-03 7.240000E-01
      vertex 3.410000E+01 -2.000000E-03 3.793000E+00
      vertex 3.293300E+01 -2.000000E-03 1.111000E+00
    endloop
  endfacet
  facet normal 0.000000E+00 1.000000E+00 0.000000E+00
    outer loop
      vertex 3.293300E+01 -2.000000E-03 1.111000E+00
      vertex 3.410000E+01 -2.000000E-03 3.793000E+00
      vertex 3.333900E+01 -2.000000E-03 1.564000E+00
    endloop
  endfacet
  facet normal -9.171495E-01 0.000000E+00 3.985432E-01
    outer loop
      vertex -3.290500E+01 -1.998000E+00 8.737900E+01
      vertex -3.266600E+01 -1.998000E+00 8.792900E+01
      vertex -3.290500E+01 -2.000000E-03 8.737900E+01
    endloop
  endfacet
  facet normal -9.171495E-01 0.000000E+00 3.985432E-01
    outer loop
      vertex -3.266600E+01 -2.000000E-03 8.792900E+01
      vertex -3.290500E+01 -2.000000E-03 8.737900E+01
      vertex -3.266600E+01 -1.998000E+00 8.792900E+01
    endloop
  endfacet
  facet normal 0.000000E+00 -1.000000E+00 0.000000E+00
    outer loop
      vertex 3.333900E+01 -1.998000E+00 1.564000E+00
      vertex 3.366600E+01 -1.998000E+00 2.071000E+00
      vertex -3.310000E+01 -1.998000E+00 8.620700E+01
    endloop
  endfacet
  facet normal 0.000000E+00 -1.000000E+00 0.000000E+00
    outer loop
      vertex 3.410000E+01 -1.998000E+00 3.793000E+00
      vertex -3.310000E+01 -1.998000E+00 8.620700E+01
      vertex 3.405100E+01 -1.998000E+00 3.200000E+00
    endloop
  endfacet
  facet normal 0.000000E+00 -1.000000E+00 0.000000E+00
    outer loop
      vertex 3.390500E+01 -1.998000E+00 2.621000E+00
      vertex 3.405100E+01 -1.998000E+00 3.200000E+00
      vertex -3.310000E+01 -1.998000E+00 8.620700E+01
    endloop
  endfacet
  facet normal 0.000000E+00 -1.000000E+00 0.000000E+00
    outer loop
      vertex 3.366600E+01 -1.998000E+00 2.071000E+00
      vertex 3.390500E+01 -1.998000E+00 2.621000E+00
      vertex -3.310000E+01 -1.998000E+00 8.620700E+01
    endloop
  endfacet
  facet normal 0.000000E+00 1.000000E+00 0.000000E+00
    outer loop
      vertex -2.974000E+01 -2.000000E-03 4.700000E-02
      vertex -3.034800E+01 -2.000000E-03 1.860000E-01
      vertex -3.310000E+01 -2.000000E-03 3.793000E+00
    endloop
  endfacet
  facet normal 0.000000E+00 1.000000E+00 0.000000E+00
    outer loop
      vertex -3.034800E+01 -2.000000E-03 1.860000E-01
      vertex -3.092500E+01 -2.000000E-03 4.130000E-01
      vertex -3.310000E+01 -2.000000E-03 3.793000E+00
    endloop
  endfacet
  facet normal -9.696479E-01 0.000000E+00 2.445054E-01
    outer loop
      vertex -3.290500E+01 -2.000000E-03 8.737900E+01
      vertex -3.305100E+01 -2.000000E-03 8.680000E+01
      vertex -3.305100E+01 -1.998000E+00 8.680000E+01
    endloop
  endfacet
  facet normal -9.696479E-01 0.000000E+00 2.445054E-01
    outer loop
      vertex -3.290500E+01 -2.000000E-03 8.737900E+01
      vertex -3.305100E+01 -1.998000E+00 8.680000E+01
      vertex -3.290500E+01 -1.998000E+00 8.737900E+01
    endloop
  endfacet
  facet normal 0.000000E+00 -1.000000E+00 0.000000E+00
    outer loop
      vertex 3.074000E+01 -1.998000E+00 4.700000E-02
      vertex 3.134800E+01 -1.998000E+00 1.860000E-01
      vertex -3.310000E+01 -1.998000E+00 8.620700E+01
    endloop
  endfacet
  facet normal 0.000000E+00 -1.000000E+00 0.000000E+00
    outer loop
      vertex 3.011700E+01 -1.998000E+00 0.000000E+00
      vertex 3.074000E+01 -1.998000E+00 4.700000E-02
      vertex -3.310000E+01 -1.998000E+00 8.620700E+01
    endloop
  endfacet
  facet normal -9.966035E-01 0.000000E+00 -8.235003E-02
    outer loop
      vertex -3.305100E+01 -1.998000E+00 3.200000E+00
      vertex -3.310000E+01 -1.998000E+00 3.793000E+00
      vertex -3.310000E+01 -2.000000E-03 3.793000E+00
    endloop
  endfacet
  facet normal -9.966035E-01 0.000000E+00 -8.235003E-02
    outer loop
      vertex -3.305100E+01 -1.998000E+00 3.200000E+00
      vertex -3.310000E+01 -2.000000E-03 3.793000E+00
      vertex -3.305100E+01 -2.000000E-03 3.200000E+00
    endloop
  endfacet
  facet normal -9.966035E-01 0.000000E+00 8.235003E-02
    outer loop
      vertex -3.305100E+01 -2.000000E-03 8.680000E+01
      vertex -3.310000E+01 -2.000000E-03 8.620700E+01
      vertex -3.310000E+01 -1.998000E+00 8.620700E+01
    endloop
  endfacet
  facet normal -9.966035E-01 0.000000E+00 8.235003E-02
    outer loop
      vertex -3.305100E+01 -2.000000E-03 8.680000E+01
      vertex -3.310000E+01 -1.998000E+00 8.620700E+01
      vertex -3.305100E+01 -1.998000E+00 8.680000E+01
    endloop
  endfacet
  facet normal -9.696479E-01 0.000000E+00 -2.445054E-01
    outer loop
      vertex -3.305100E+01 -2.000000E-03 3.200000E+00
      vertex -3.290500E+01 -2.000000E-03 2.621000E+00
      vertex -3.290500E+01 -1.998000E+00 2.621000E+00
    endloop
  endfacet
  facet normal -9.696479E-01 0.000000E+00 -2.445054E-01
    outer loop
      vertex -3.305100E+01 -2.000000E-03 3.200000E+00
      vertex -3.290500E+01 -1.998000E+00 2.621000E+00
      vertex -3.305100E+01 -1.998000E+00 3.200000E+00
    endloop
  endfacet
  facet normal 0.000000E+00 1.000000E+00 0.000000E+00
    outer loop
      vertex -3.305100E+01 -2.000000E-03 8.680000E+01
      vertex -3.290500E+01 -2.000000E-03 8.737900E+01
      vertex -3.310000E+01 -2.000000E-03 8.620700E+01
    endloop
  endfacet
  facet normal 0.000000E+00 1.000000E+00 0.000000E+00
    outer loop
      vertex -3.290500E+01 -2.000000E-03 8.737900E+01
      vertex -3.266600E+01 -2.000000E-03 8.792900E+01
      vertex -3.310000E+01 -2.000000E-03 8.620700E+01
    endloop
  endfacet
  facet normal 0.000000E+00 1.000000E+00 0.000000E+00
    outer loop
      vertex -3.266600E+01 -2.000000E-03 8.792900E+01
      vertex -3.233900E+01 -2.000000E-03 8.843600E+01
      vertex -3.310000E+01 -2.000000E-03 8.620700E+01
    endloop
  endfacet
  facet normal -9.171495E-01 0.000000E+00 -3.985432E-01
    outer loop
      vertex -3.290500E+01 -2.000000E-03 2.621000E+00
      vertex -3.266600E+01 -2.000000E-03 2.071000E+00
      vertex -3.290500E+01 -1.998000E+00 2.621000E+00
    endloop
  endfacet
  facet normal 0.000000E+00 1.000000E+00 0.000000E+00
    outer loop
      vertex 3.011700E+01 -2.000000E-03 9.000000E+01
      vertex 3.074000E+01 -2.000000E-03 8.995300E+01
      vertex -3.310000E+01 -2.000000E-03 3.793000E+00
    endloop
  endfacet
  facet normal 0.000000E+00 -1.000000E+00 0.000000E+00
    outer loop
      vertex -2.911700E+01 -1.998000E+00 9.000000E+01
      vertex 3.410000E+01 -1.998000E+00 3.793000E+00
      vertex 3.011700E+01 -1.998000E+00 9.000000E+01
    endloop
  endfacet
  facet normal 0.000000E+00 -1.000000E+00 0.000000E+00
    outer loop
      vertex -2.911700E+01 -1.998000E+00 9.000000E+01
      vertex -2.974000E+01 -1.998000E+00 8.995300E+01
      vertex 3.410000E+01 -1.998000E+00 3.793000E+00
    endloop
  endfacet
  facet normal 0.000000E+00 1.000000E+00 0.000000E+00
    outer loop
      vertex -3.233900E+01 -2.000000E-03 8.843600E+01
      vertex -3.193300E+01 -2.000000E-03 8.888900E+01
      vertex -3.310000E+01 -2.000000E-03 8.620700E+01
    endloop
  endfacet
  facet normal 0.000000E+00 -1.000000E+00 0.000000E+00
    outer loop
      vertex 3.410000E+01 -1.998000E+00 8.620700E+01
      vertex 3.011700E+01 -1.998000E+00 9.000000E+01
      vertex 3.410000E+01 -1.998000E+00 3.793000E+00
    endloop
  endfacet
  facet normal 0.000000E+00 -1.000000E+00 0.000000E+00
    outer loop
      vertex -3.266600E+01 -1.998000E+00 2.071000E+00
      vertex -3.310000E+01 -1.998000E+00 3.793000E+00
      vertex -3.290500E+01 -1.998000E+00 2.621000E+00
    endloop
  endfacet
  facet normal 0.000000E+00 -1.000000E+00 0.000000E+00
    outer loop
      vertex -3.233900E+01 -1.998000E+00 1.564000E+00
      vertex -3.310000E+01 -1.998000E+00 3.793000E+00
      vertex -3.266600E+01 -1.998000E+00 2.071000E+00
    endloop
  endfacet
  facet normal 0.000000E+00 1.000000E+00 0.000000E+00
    outer loop
      vertex 3.011700E+01 -2.000000E-03 9.000000E+01
      vertex -3.310000E+01 -2.000000E-03 3.793000E+00
      vertex -2.911700E+01 -2.000000E-03 9.000000E+01
    endloop
  endfacet
  facet normal 0.000000E+00 1.000000E+00 0.000000E+00
    outer loop
      vertex 3.333900E+01 -2.000000E-03 8.843600E+01
      vertex 3.366600E+01 -2.000000E-03 8.792900E+01
      vertex -3.310000E+01 -2.000000E-03 3.793000E+00
    endloop
  endfacet
  facet normal 0.000000E+00 1.000000E+00 0.000000E+00
    outer loop
      vertex 3.410000E+01 -2.000000E-03 8.620700E+01
      vertex 3.410000E+01 -2.000000E-03 3.793000E+00
      vertex -3.310000E+01 -2.000000E-03 3.793000E+00
    endloop
  endfacet
  facet normal 0.000000E+00 1.000000E+00 0.000000E+00
    outer loop
      vertex -2.911700E+01 -2.000000E-03 0.000000E+00
      vertex -2.974000E+01 -2.000000E-03 4.700000E-02
      vertex -3.310000E+01 -2.000000E-03 3.793000E+00
    endloop
  endfacet
  facet normal 0.000000E+00 -1.000000E+00 0.000000E+00
    outer loop
      vertex -2.974000E+01 -1.998000E+00 8.995300E+01
      vertex -3.034800E+01 -1.998000E+00 8.981400E+01
      vertex 3.410000E+01 -1.998000E+00 3.793000E+00
    endloop
  endfacet
  facet normal 0.000000E+00 -1.000000E+00 0.000000E+00
    outer loop
      vertex -3.034800E+01 -1.998000E+00 8.981400E+01
      vertex -3.092500E+01 -1.998000E+00 8.958700E+01
      vertex 3.410000E+01 -1.998000E+00 3.793000E+00
    endloop
  endfacet
  facet normal 0.000000E+00 -1.000000E+00 0.000000E+00
    outer loop
      vertex -2.911700E+01 -1.998000E+00 0.000000E+00
      vertex 3.011700E+01 -1.998000E+00 0.000000E+00
      vertex -3.310000E+01 -1.998000E+00 8.620700E+01
    endloop
  endfacet
  facet normal -7.522764E-02 0.000000E+00 9.971664E-01
    outer loop
      vertex -2.911700E+01 -2.000000E-03 9.000000E+01
      vertex -2.974000E+01 -2.000000E-03 8.995300E+01
      vertex -2.974000E+01 -1.998000E+00 8.995300E+01
    endloop
  endfacet
  facet normal -7.522764E-02 0.000000E+00 9.971664E-01
    outer loop
      vertex -2.911700E+01 -2.000000E-03 9.000000E+01
      vertex -2.974000E+01 -1.998000E+00 8.995300E+01
      vertex -2.911700E+01 -1.998000E+00 9.000000E+01
    endloop
  endfacet
  facet normal 0.000000E+00 1.000000E+00 0.000000E+00
    outer loop
      vertex 3.011700E+01 -2.000000E-03 0.000000E+00
      vertex -2.911700E+01 -2.000000E-03 0.000000E+00
      vertex -3.310000E+01 -2.000000E-03 3.793000E+00
    endloop
  endfacet
  facet normal 0.000000E+00 -1.000000E+00 0.000000E+00
    outer loop
      vertex -3.310000E+01 -1.998000E+00 8.620700E+01
      vertex -3.310000E+01 -1.998000E+00 3.793000E+00
      vertex -2.911700E+01 -1.998000E+00 0.000000E+00
    endloop
  endfacet
  facet normal 0.000000E+00 -1.000000E+00 0.000000E+00
    outer loop
      vertex -3.305100E+01 -1.998000E+00 3.200000E+00
      vertex -3.290500E+01 -1.998000E+00 2.621000E+00
      vertex -3.310000E+01 -1.998000E+00 3.793000E+00
    endloop
  endfacet
  facet normal 0.000000E+00 1.000000E+00 0.000000E+00
    outer loop
      vertex -3.092500E+01 -2.000000E-03 4.130000E-01
      vertex -3.145800E+01 -2.000000E-03 7.240000E-01
      vertex -3.310000E+01 -2.000000E-03 3.793000E+00
    endloop
  endfacet
  facet normal 0.000000E+00 -1.000000E+00 0.000000E+00
    outer loop
      vertex -3.193300E+01 -1.998000E+00 1.111000E+00
      vertex -3.310000E+01 -1.998000E+00 3.793000E+00
      vertex -3.233900E+01 -1.998000E+00 1.564000E+00
    endloop
  endfacet
  facet normal -9.171495E-01 0.000000E+00 -3.985432E-01
    outer loop
      vertex -3.266600E+01 -1.998000E+00 2.071000E+00
      vertex -3.290500E+01 -1.998000E+00 2.621000E+00
      vertex -3.266600E+01 -2.000000E-03 2.071000E+00
    endloop
  endfacet
endsolid 
