# Blender v2.82 (sub 7) OBJ File: ''
# www.blender.org
o Card
v -33.099998 3.793000 1.998000
v -33.099998 86.207001 1.998000
v -33.099998 86.207001 0.002000
v -33.099998 3.793000 0.002000
v 30.117001 90.000000 0.002000
v -29.117001 90.000000 0.002000
v 30.117001 90.000000 1.998000
v 31.924999 89.586998 1.998000
v 32.458000 89.276001 1.998000
v 32.458000 89.276001 0.002000
v 31.924999 89.586998 0.002000
v -29.740000 89.953003 0.002000
v -30.348000 89.814003 0.002000
v -30.348000 89.814003 1.998000
v -29.740000 89.953003 1.998000
v -29.117001 90.000000 1.998000
v -30.924999 89.586998 0.002000
v -30.924999 89.586998 1.998000
v -31.458000 89.276001 0.002000
v -31.458000 89.276001 1.998000
v 30.117001 0.000000 1.998000
v -29.117001 0.000000 1.998000
v 30.117001 0.000000 0.002000
v -31.933001 88.889000 0.002000
v -31.933001 88.889000 1.998000
v -32.666000 2.071000 0.002000
v -32.339001 1.564000 0.002000
v -32.339001 1.564000 1.998000
v -32.666000 2.071000 1.998000
v 32.932999 88.889000 1.998000
v 32.932999 88.889000 0.002000
v -32.339001 88.435997 0.002000
v -32.339001 88.435997 1.998000
v 33.339001 88.435997 1.998000
v 33.339001 88.435997 0.002000
v -29.117001 0.000000 0.002000
v -31.933001 1.111000 0.002000
v -31.933001 1.111000 1.998000
v 33.666000 87.929001 1.998000
v 33.666000 87.929001 0.002000
v 33.904999 87.378998 1.998000
v 33.904999 87.378998 0.002000
v -32.666000 87.929001 0.002000
v -32.666000 87.929001 1.998000
v 34.050999 86.800003 1.998000
v 34.050999 86.800003 0.002000
v -31.458000 0.724000 0.002000
v -31.458000 0.724000 1.998000
v 34.099998 86.207001 1.998000
v 34.099998 86.207001 0.002000
v -30.924999 0.413000 0.002000
v -30.924999 0.413000 1.998000
v 32.458000 0.724000 1.998000
v 32.458000 0.724000 0.002000
v 32.932999 1.111000 0.002000
v -30.348000 0.186000 0.002000
v -30.348000 0.186000 1.998000
v 31.924999 0.413000 1.998000
v 31.924999 0.413000 0.002000
v 31.348000 0.186000 1.998000
v 31.348000 0.186000 0.002000
v -29.740000 0.047000 0.002000
v -29.740000 0.047000 1.998000
v 30.740000 0.047000 1.998000
v 30.740000 0.047000 0.002000
v 34.099998 3.793000 1.998000
v 34.099998 3.793000 0.002000
v 31.348000 89.814003 0.002000
v 30.740000 89.953003 0.002000
v -33.050999 86.800003 1.998000
v -32.904999 87.378998 1.998000
v -33.050999 3.200000 0.002000
v -32.904999 2.621000 0.002000
v 31.348000 89.814003 1.998000
v 30.740000 89.953003 1.998000
v 34.050999 3.200000 1.998000
v 34.050999 3.200000 0.002000
v 33.904999 2.621000 1.998000
v 33.904999 2.621000 0.002000
v 33.666000 2.071000 1.998000
v 33.666000 2.071000 0.002000
v 32.932999 1.111000 1.998000
v 33.339001 1.564000 1.998000
v 33.339001 1.564000 0.002000
v -32.904999 87.378998 0.002000
v -33.050999 86.800003 0.002000
v -33.050999 3.200000 1.998000
v -32.904999 2.621000 1.998000
vt 0.000000 0.000000
vt 1.000000 0.000000
vt 1.000000 1.000000
vt 1.000000 0.000000
vt 1.000000 1.000000
vt 0.000000 0.000000
vt 1.000000 0.000000
vt 1.000000 1.000000
vt 0.000000 0.000000
vt 1.000000 0.000000
vt 1.000000 1.000000
vt 1.000000 0.000000
vt 1.000000 1.000000
vt 0.000000 0.000000
vt 1.000000 0.000000
vt 1.000000 1.000000
vt 1.000000 0.000000
vt 1.000000 1.000000
vt 0.000000 0.000000
vt 1.000000 0.000000
vt 0.000000 0.000000
vt 1.000000 0.000000
vt 1.000000 1.000000
vt 1.000000 0.000000
vt 0.000000 0.000000
vt 1.000000 0.000000
vt 1.000000 1.000000
vt 1.000000 0.000000
vt 0.000000 0.000000
vt 1.000000 0.000000
vt 1.000000 1.000000
vt 0.000000 0.000000
vt 1.000000 0.000000
vt 1.000000 1.000000
vt 1.000000 0.000000
vt 0.000000 0.000000
vt 1.000000 0.000000
vt 1.000000 1.000000
vt 1.000000 0.000000
vt 1.000000 1.000000
vt 0.000000 0.000000
vt 1.000000 0.000000
vt 0.000000 0.000000
vt 1.000000 1.000000
vt 0.000000 0.000000
vt 1.000000 0.000000
vt 1.000000 1.000000
vt 1.000000 0.000000
vt 0.000000 0.000000
vt 1.000000 0.000000
vt 1.000000 1.000000
vt 1.000000 0.000000
vt 1.000000 1.000000
vt 0.000000 0.000000
vt 1.000000 0.000000
vt 0.000000 0.000000
vt 1.000000 0.000000
vt 1.000000 1.000000
vt 1.000000 0.000000
vt 0.000000 0.000000
vt 1.000000 0.000000
vt 1.000000 1.000000
vt 1.000000 0.000000
vt 0.000000 0.000000
vt 1.000000 0.000000
vt 1.000000 1.000000
vt 1.000000 0.000000
vt 0.000000 0.000000
vt 1.000000 0.000000
vt 1.000000 1.000000
vt 1.000000 0.000000
vt 0.000000 0.000000
vt 1.000000 0.000000
vt 1.000000 1.000000
vt 1.000000 0.000000
vt 0.000000 0.000000
vt 1.000000 0.000000
vt 1.000000 1.000000
vt 1.000000 0.000000
vt 0.000000 0.000000
vt 1.000000 0.000000
vt 1.000000 1.000000
vt 1.000000 0.000000
vt 0.000000 0.000000
vt 1.000000 0.000000
vt 1.000000 1.000000
vt 1.000000 0.000000
vt 0.000000 0.000000
vt 1.000000 0.000000
vt 1.000000 1.000000
vt 0.000000 0.000000
vt 1.000000 0.000000
vt 1.000000 1.000000
vt 1.000000 0.000000
vt 1.000000 0.000000
vt 1.000000 1.000000
vt 1.000000 0.000000
vt 1.000000 1.000000
vt 0.000000 0.000000
vt 1.000000 0.000000
vt 0.000000 0.000000
vt 0.000000 0.000000
vt 0.000000 0.000000
vt 1.000000 0.000000
vt 1.000000 1.000000
vt 1.000000 0.000000
vt 0.000000 0.000000
vt 1.000000 0.000000
vt 1.000000 1.000000
vt 1.000000 0.000000
vt 0.000000 0.000000
vt 1.000000 0.000000
vt 1.000000 1.000000
vt 1.000000 0.000000
vt 0.000000 0.000000
vt 1.000000 1.000000
vt 0.000000 0.000000
vt 1.000000 0.000000
vt 0.000000 0.000000
vt 1.000000 1.000000
vt 1.000000 0.000000
vt 0.000000 0.000000
vt 1.000000 1.000000
vt 0.002902 0.970878
vt 0.000000 0.957855
vt 0.000729 0.964444
vt 0.006458 0.976989
vt 0.011324 0.982622
vt 0.017366 0.987656
vt 0.000000 0.000000
vt 1.000000 0.000000
vt 1.000000 0.000000
vt 0.000000 0.000000
vt 1.000000 0.000000
vt 0.000000 0.000000
vt 0.000000 0.000000
vt 1.000000 0.000000
vt 0.000000 0.000000
vt 0.000000 0.000000
vt 1.000000 0.000000
vt 0.000000 0.000000
vt 1.000000 1.000000
vt 0.000000 0.000000
vt 0.000000 0.000000
vt 1.000000 0.000000
vt 0.000000 0.000000
vt 1.000000 0.957855
vt 0.000000 0.042145
vt 0.999271 0.964444
vt 0.997098 0.970878
vt 0.993542 0.976989
vt 0.988675 0.982622
vt 0.982634 0.987656
vt 0.975566 0.991956
vt 0.967634 0.995411
vt 0.000000 0.000000
vt 1.000000 1.000000
vt 1.000000 0.000000
vt 1.000000 0.000000
vt 0.032366 0.995411
vt 0.024434 0.991956
vt 0.040952 0.997933
vt 0.050000 0.999478
vt 0.059271 1.000000
vt 0.000000 0.000000
vt 1.000000 0.000000
vt 1.000000 1.000000
vt 1.000000 0.000000
vt 0.000000 0.000000
vt 1.000000 0.000000
vt 1.000000 1.000000
vt 1.000000 0.000000
vt 1.000000 1.000000
vt 0.000000 0.000000
vt 1.000000 0.000000
vt 1.000000 1.000000
vt 1.000000 0.000000
vt 0.000000 0.000000
vt 1.000000 0.000000
vt 1.000000 1.000000
vt 1.000000 0.000000
vt 0.000000 0.000000
vt 1.000000 0.000000
vt 1.000000 1.000000
vt 0.017366 0.012345
vt 0.011324 0.017378
vt 0.024434 0.008044
vt 0.032366 0.004589
vt 0.040952 0.002067
vt 0.000000 0.000000
vt 1.000000 0.000000
vt 1.000000 1.000000
vt 1.000000 0.000000
vt 0.000000 0.000000
vt 1.000000 0.000000
vt 1.000000 0.000000
vt 0.000000 0.000000
vt 1.000000 0.000000
vt 0.000000 0.000000
vt 1.000000 0.000000
vt 0.975566 0.008044
vt 1.000000 0.042145
vt 0.982634 0.012345
vt 0.967634 0.004589
vt 0.959048 0.002067
vt 0.950000 0.000522
vt 0.940729 0.000000
vt 0.000000 0.000000
vt 0.000000 0.000000
vt 0.000000 0.000000
vt 0.000000 0.000000
vt 0.000000 0.000000
vt 1.000000 1.000000
vt 0.000000 0.000000
vt 1.000000 0.000000
vt 0.006458 0.023011
vt 0.000729 0.035556
vt 0.002902 0.029122
vt 0.000000 0.000000
vt 1.000000 0.000000
vt 1.000000 1.000000
vt 1.000000 0.000000
vt 1.000000 1.000000
vt 0.050000 0.000522
vt 0.059271 0.000000
vt 0.000000 0.000000
vt 1.000000 0.000000
vt 1.000000 1.000000
vt 0.000000 0.000000
vt 1.000000 1.000000
vt 1.000000 1.000000
vt 1.000000 0.000000
vt 1.000000 1.000000
vt 0.000000 0.000000
vt 0.940729 1.000000
vt 0.950000 0.999478
vt 0.993542 0.023011
vt 0.997098 0.029122
vt 0.988675 0.017378
vt 0.000000 0.000000
vt 0.959048 0.997933
vt 1.000000 0.000000
vt 1.000000 1.000000
vt 0.999271 0.035556
vt 0.000000 0.000000
vt 1.000000 1.000000
vn -1.0000 0.0000 0.0000
vn 0.0000 1.0000 0.0000
vn 0.5040 0.8637 0.0000
vn -0.2229 0.9748 0.0000
vn -0.3661 0.9306 0.0000
vn -0.5040 0.8637 0.0000
vn 0.0000 -1.0000 0.0000
vn -0.6316 0.7753 0.0000
vn -0.8404 -0.5420 0.0000
vn 0.6316 0.7753 0.0000
vn -0.7447 0.6674 0.0000
vn 0.7447 0.6674 0.0000
vn -0.7447 -0.6674 0.0000
vn 0.8404 0.5420 0.0000
vn 0.9172 0.3985 0.0000
vn -0.8404 0.5420 0.0000
vn 0.9696 0.2445 0.0000
vn -0.6316 -0.7753 0.0000
vn 0.9966 0.0823 0.0000
vn 0.9966 0.0824 0.0000
vn -0.5040 -0.8637 0.0000
vn 0.6316 -0.7753 0.0000
vn -0.3661 -0.9306 0.0000
vn 0.5040 -0.8637 0.0000
vn 0.0000 0.0000 -1.0000
vn 0.3661 -0.9306 0.0000
vn -0.2229 -0.9748 0.0000
vn 0.2229 -0.9748 0.0000
vn -0.0752 -0.9972 0.0000
vn 1.0000 0.0000 0.0000
vn 0.0000 0.0000 1.0000
vn 0.0752 -0.9972 0.0000
vn 0.9966 -0.0824 0.0000
vn 0.9966 -0.0823 0.0000
vn 0.0752 0.9972 0.0000
vn 0.9696 -0.2445 0.0000
vn 0.9172 -0.3985 0.0000
vn 0.2229 0.9748 0.0000
vn 0.8404 -0.5420 0.0000
vn 0.7447 -0.6674 0.0000
vn 0.3661 0.9306 0.0000
vn -0.9171 0.3985 0.0000
vn -0.9172 0.3985 0.0000
vn -0.9696 0.2445 0.0000
vn -0.9697 0.2445 0.0000
vn -0.9966 -0.0823 0.0000
vn -0.9966 -0.0824 0.0000
vn -0.9966 0.0823 0.0000
vn -0.9966 0.0824 0.0000
vn -0.9697 -0.2445 0.0000
vn -0.9696 -0.2445 0.0000
vn -0.9171 -0.3985 0.0000
vn -0.0752 0.9972 0.0000
vn -0.9172 -0.3985 0.0000
s off
f 1/1/1 2/2/1 3/3/1
f 1/1/1 3/4/1 4/5/1
f 5/6/2 6/7/2 7/8/2
f 8/9/3 9/10/3 10/11/3
f 8/9/3 10/12/3 11/13/3
f 12/14/4 13/15/4 14/16/4
f 12/14/4 14/17/4 15/18/4
f 6/19/2 16/20/2 7/8/2
f 13/21/5 17/22/5 18/23/5
f 13/21/5 18/24/5 14/16/5
f 17/25/6 19/26/6 20/27/6
f 17/25/6 20/28/6 18/23/6
f 21/29/7 22/30/7 23/31/7
f 19/32/8 24/33/8 25/34/8
f 19/32/8 25/35/8 20/27/8
f 26/36/9 27/37/9 28/38/9
f 26/36/9 28/39/9 29/40/9
f 9/41/10 30/42/10 10/11/10
f 31/43/10 10/12/10 30/44/10
f 24/45/11 32/46/11 33/47/11
f 24/45/11 33/48/11 25/34/11
f 30/49/12 34/50/12 35/51/12
f 30/49/12 35/52/12 31/53/12
f 22/54/7 36/55/7 23/31/7
f 27/56/13 37/57/13 38/58/13
f 27/56/13 38/59/13 28/38/13
f 34/60/14 39/61/14 40/62/14
f 34/60/14 40/63/14 35/51/14
f 39/64/15 41/65/15 42/66/15
f 39/64/15 42/67/15 40/62/15
f 32/68/16 43/69/16 44/70/16
f 32/68/16 44/71/16 33/47/16
f 41/72/17 45/73/17 46/74/17
f 41/72/17 46/75/17 42/66/17
f 37/76/18 47/77/18 48/78/18
f 37/76/18 48/79/18 38/58/18
f 45/80/19 49/81/19 50/82/19
f 45/80/20 50/83/20 46/74/20
f 47/84/21 51/85/21 52/86/21
f 47/84/21 52/87/21 48/78/21
f 53/88/22 54/89/22 55/90/22
f 51/91/23 56/92/23 57/93/23
f 51/91/23 57/94/23 52/86/23
f 53/88/24 58/95/24 59/96/24
f 53/88/24 59/97/24 54/98/24
f 50/99/25 4/100/25 46/74/25
f 42/101/25 46/75/25 4/5/25
f 40/102/25 42/67/25 4/5/25
f 58/103/26 60/104/26 61/105/26
f 58/103/26 61/106/26 59/96/26
f 56/107/27 62/108/27 63/109/27
f 56/107/27 63/110/27 57/93/27
f 60/111/28 64/112/28 65/113/28
f 60/111/28 65/114/28 61/105/28
f 62/115/29 36/55/29 22/116/29
f 62/115/29 22/30/29 63/109/29
f 49/117/30 66/118/30 50/82/30
f 67/119/30 50/83/30 66/120/30
f 19/32/25 17/22/25 3/3/25
f 17/25/25 13/15/25 3/3/25
f 13/21/25 12/121/25 3/3/25
f 12/14/25 6/7/25 3/3/25
f 4/122/25 3/4/25 6/123/25
f 24/45/25 19/26/25 3/3/25
f 41/124/31 49/125/31 45/126/31
f 39/127/31 49/125/31 41/124/31
f 34/128/31 49/125/31 39/127/31
f 30/129/31 49/125/31 34/128/31
f 64/130/32 21/131/32 23/31/32
f 64/130/32 23/132/32 65/113/32
f 10/133/25 31/134/25 4/5/25
f 11/135/25 10/12/25 4/5/25
f 68/136/25 11/137/25 4/5/25
f 35/138/25 4/100/25 31/53/25
f 69/139/25 68/140/25 4/5/25
f 54/141/25 59/97/25 67/142/25
f 59/143/25 61/106/25 67/142/25
f 65/144/25 67/145/25 61/105/25
f 23/146/25 67/145/25 65/113/25
f 2/147/31 66/148/31 70/149/31
f 71/150/31 70/149/31 66/148/31
f 44/151/31 71/150/31 66/148/31
f 33/152/31 44/151/31 66/148/31
f 25/153/31 33/152/31 66/148/31
f 20/154/31 25/153/31 66/148/31
f 18/155/31 20/154/31 66/148/31
f 72/156/25 4/100/25 73/157/25
f 26/36/25 73/158/25 4/5/25
f 27/56/25 26/159/25 4/5/25
f 37/76/25 27/37/25 4/5/25
f 47/84/25 37/57/25 4/5/25
f 8/160/31 49/125/31 9/161/31
f 74/162/31 49/125/31 8/160/31
f 75/163/31 49/125/31 74/162/31
f 7/164/31 49/125/31 75/163/31
f 30/129/31 9/161/31 49/125/31
f 66/165/33 76/166/33 77/167/33
f 66/165/34 77/168/34 67/142/34
f 7/169/35 75/170/35 69/171/35
f 7/169/35 69/172/35 5/173/35
f 76/174/36 78/175/36 79/176/36
f 76/174/36 79/177/36 77/167/36
f 78/178/37 80/179/37 81/180/37
f 78/178/37 81/181/37 79/176/37
f 75/182/38 74/183/38 68/184/38
f 75/182/38 68/140/38 69/171/38
f 82/185/31 83/186/31 2/147/31
f 53/187/31 82/185/31 2/147/31
f 58/188/31 53/187/31 2/147/31
f 60/189/31 58/188/31 2/147/31
f 80/190/39 83/191/39 84/192/39
f 80/190/39 84/193/39 81/180/39
f 83/194/40 82/195/40 55/90/40
f 83/194/40 55/196/40 84/192/40
f 74/197/41 8/198/41 11/13/41
f 74/197/41 11/137/41 68/184/41
f 82/199/22 53/200/22 55/90/22
f 48/201/31 1/202/31 38/203/31
f 52/204/31 1/202/31 48/201/31
f 57/205/31 1/202/31 52/204/31
f 63/206/31 1/202/31 57/205/31
f 22/207/31 1/202/31 63/206/31
f 67/119/25 23/132/25 4/5/25
f 77/208/25 79/177/25 67/142/25
f 81/209/25 67/145/25 79/176/25
f 84/210/25 67/145/25 81/180/25
f 54/141/25 67/145/25 55/90/25
f 55/211/25 67/145/25 84/192/25
f 71/212/42 44/71/42 85/213/42
f 43/214/43 85/215/43 44/70/43
f 83/186/31 80/216/31 2/147/31
f 66/148/31 2/147/31 76/217/31
f 78/218/31 76/217/31 2/147/31
f 80/216/31 78/218/31 2/147/31
f 62/115/25 56/92/25 4/5/25
f 56/107/25 51/85/25 4/5/25
f 85/219/44 86/220/44 70/221/44
f 85/219/45 70/222/45 71/223/45
f 64/224/31 60/189/31 2/147/31
f 21/225/31 64/224/31 2/147/31
f 87/226/46 1/227/46 4/5/46
f 87/226/47 4/100/47 72/228/47
f 86/229/48 3/4/48 2/230/48
f 86/229/49 2/2/49 70/221/49
f 72/156/50 73/158/50 88/231/50
f 72/156/51 88/232/51 87/233/51
f 86/229/25 85/215/25 3/3/25
f 85/219/25 43/69/25 3/3/25
f 43/214/25 32/46/25 3/3/25
f 73/234/52 26/159/52 88/231/52
f 5/6/25 69/172/25 4/5/25
f 16/235/31 66/148/31 7/164/31
f 16/235/31 15/236/31 66/148/31
f 32/68/25 24/33/25 3/3/25
f 49/125/31 7/164/31 66/148/31
f 29/237/31 1/202/31 88/238/31
f 28/239/31 1/202/31 29/237/31
f 5/6/25 4/100/25 6/123/25
f 35/138/25 40/63/25 4/5/25
f 50/99/25 67/145/25 4/5/25
f 36/240/25 62/108/25 4/5/25
f 15/236/31 14/241/31 66/148/31
f 14/241/31 18/155/31 66/148/31
f 22/207/31 21/225/31 2/147/31
f 6/19/53 12/121/53 15/18/53
f 6/19/53 15/242/53 16/243/53
f 23/146/25 36/55/25 4/5/25
f 2/147/31 1/202/31 22/207/31
f 87/244/31 88/238/31 1/202/31
f 51/91/25 47/77/25 4/5/25
f 38/203/31 1/202/31 28/239/31
f 29/245/54 88/232/54 26/246/54
